<?xml version="1.0" encoding="UTF-8" standalone="no"?>
<!DOCTYPE svg PUBLIC "-//W3C//DTD SVG 1.1//EN"
 "http://www.w3.org/Graphics/SVG/1.1/DTD/svg11.dtd">
<!-- Generated by graphviz version 2.40.1 (20161225.0304)
 -->
<!-- Title: dependencies Pages: 1 -->
<svg width="2035pt" height="284pt"
 viewBox="0.00 0.00 2035.00 284.00" xmlns="http://www.w3.org/2000/svg" xmlns:xlink="http://www.w3.org/1999/xlink">
<g id="graph0" class="graph" transform="scale(1 1) rotate(0) translate(4 280)">
<title>dependencies</title>
<polygon fill="#ffffff" stroke="transparent" points="-4,4 -4,-280 2031,-280 2031,4 -4,4"/>
<text text-anchor="start" x="992.5091" y="-42.4" font-family="sans-serif" font-weight="bold" font-size="14.00" fill="#000000">Legend</text>
<polygon fill="#ffffb3" stroke="transparent" points="779.5,-10 779.5,-30 799.5,-30 799.5,-10 779.5,-10"/>
<text text-anchor="start" x="803.129" y="-15.4" font-family="sans-serif" font-size="14.00" fill="#000000"> &#160;Declarations</text>
<polygon fill="#8dd3c7" stroke="transparent" points="892.5,-10 892.5,-30 912.5,-30 912.5,-10 892.5,-10"/>
<text text-anchor="start" x="916.2251" y="-15.4" font-family="sans-serif" font-size="14.00" fill="#000000"> &#160;Module</text>
<polygon fill="#80b1d3" stroke="transparent" points="978.5,-10 978.5,-30 998.5,-30 998.5,-10 978.5,-10"/>
<text text-anchor="start" x="1002.2812" y="-15.4" font-family="sans-serif" font-size="14.00" fill="#000000"> &#160;Bootstrap</text>
<polygon fill="#fdb462" stroke="transparent" points="1075.5,-10 1075.5,-30 1095.5,-30 1095.5,-10 1075.5,-10"/>
<text text-anchor="start" x="1099.1732" y="-15.4" font-family="sans-serif" font-size="14.00" fill="#000000"> &#160;Providers</text>
<polygon fill="#fb8072" stroke="transparent" points="1171.5,-10 1171.5,-30 1191.5,-30 1191.5,-10 1171.5,-10"/>
<text text-anchor="start" x="1195.2258" y="-15.4" font-family="sans-serif" font-size="14.00" fill="#000000"> &#160;Exports</text>
<g id="clust1" class="cluster">
<title>cluster_AppModule</title>
<polygon fill="none" stroke="#000000" stroke-dasharray="1,5" points="8,-70 8,-268 2019,-268 2019,-70 8,-70"/>
</g>
<g id="clust2" class="cluster">
<title>cluster_AppModule_declarations</title>
<polygon fill="none" stroke="#000000" points="1889,-78 1889,-130 2011,-130 2011,-78 1889,-78"/>
</g>
<g id="clust4" class="cluster">
<title>cluster_AppModule_imports</title>
<polygon fill="none" stroke="#000000" points="1737,-78 1737,-130 1881,-130 1881,-78 1737,-78"/>
</g>
<g id="clust6" class="cluster">
<title>cluster_AppModule_bootstrap</title>
<polygon fill="none" stroke="#000000" points="1006,-208 1006,-260 1130,-260 1130,-208 1006,-208"/>
</g>
<g id="clust7" class="cluster">
<title>cluster_AppModule_providers</title>
<polygon fill="none" stroke="#000000" points="16,-78 16,-130 1729,-130 1729,-78 16,-78"/>
</g>
<!-- AppComponent -->
<g id="node1" class="node">
<title>AppComponent</title>
<polygon fill="#ffffb3" stroke="#000000" points="2002.9399,-122 1897.0601,-122 1897.0601,-86 2002.9399,-86 2002.9399,-122"/>
<text text-anchor="middle" x="1950" y="-99.8" font-family="Times,serif" font-size="14.00" fill="#000000">AppComponent</text>
</g>
<!-- AppModule -->
<g id="node2" class="node">
<title>AppModule</title>
<polygon fill="#8dd3c7" stroke="#000000" points="1109.6571,-187 1106.6571,-191 1085.6571,-191 1082.6571,-187 1026.3429,-187 1026.3429,-151 1109.6571,-151 1109.6571,-187"/>
<text text-anchor="middle" x="1068" y="-164.8" font-family="Times,serif" font-size="14.00" fill="#000000">AppModule</text>
</g>
<!-- AppComponent&#45;&gt;AppModule -->
<g id="edge1" class="edge">
<title>AppComponent&#45;&gt;AppModule</title>
<path fill="none" stroke="#000000" d="M1950,-122.0908C1950,-145.1328 1950,-182 1950,-182 1950,-182 1119.9473,-182 1119.9473,-182"/>
<polygon fill="#000000" stroke="#000000" points="1119.9474,-178.5001 1109.9473,-182 1119.9473,-185.5001 1119.9474,-178.5001"/>
</g>
<!-- AppComponent  -->
<g id="node4" class="node">
<title>AppComponent </title>
<polygon fill="#80b1d3" stroke="#000000" points="1122.439,-252 1013.561,-252 1013.561,-216 1122.439,-216 1122.439,-252"/>
<text text-anchor="middle" x="1068" y="-229.8" font-family="Times,serif" font-size="14.00" fill="#000000">AppComponent </text>
</g>
<!-- AppModule&#45;&gt;AppComponent  -->
<g id="edge3" class="edge">
<title>AppModule&#45;&gt;AppComponent </title>
<path fill="none" stroke="#000000" stroke-dasharray="1,5" d="M1068,-187.1061C1068,-187.1061 1068,-205.991 1068,-205.991"/>
<polygon fill="#000000" stroke="#000000" points="1064.5001,-205.9909 1068,-215.991 1071.5001,-205.991 1064.5001,-205.9909"/>
</g>
<!-- AppRoutingModule -->
<g id="node3" class="node">
<title>AppRoutingModule</title>
<polygon fill="#8dd3c7" stroke="#000000" points="1873.2744,-122 1870.2744,-126 1849.2744,-126 1846.2744,-122 1744.7256,-122 1744.7256,-86 1873.2744,-86 1873.2744,-122"/>
<text text-anchor="middle" x="1809" y="-99.8" font-family="Times,serif" font-size="14.00" fill="#000000">AppRoutingModule</text>
</g>
<!-- AppRoutingModule&#45;&gt;AppModule -->
<g id="edge2" class="edge">
<title>AppRoutingModule&#45;&gt;AppModule</title>
<path fill="none" stroke="#000000" d="M1809,-122.0449C1809,-143.6623 1809,-177 1809,-177 1809,-177 1119.6945,-177 1119.6945,-177"/>
<polygon fill="#000000" stroke="#000000" points="1119.6945,-173.5001 1109.6945,-177 1119.6944,-180.5001 1119.6945,-173.5001"/>
</g>
<!-- AlertService -->
<g id="node5" class="node">
<title>AlertService</title>
<ellipse fill="#fdb462" stroke="#000000" cx="1661" cy="-104" rx="59.6646" ry="18"/>
<text text-anchor="middle" x="1661" y="-99.8" font-family="Times,serif" font-size="14.00" fill="#000000">AlertService</text>
</g>
<!-- AlertService&#45;&gt;AppModule -->
<g id="edge4" class="edge">
<title>AlertService&#45;&gt;AppModule</title>
<path fill="none" stroke="#000000" d="M1661,-122.2228C1661,-142.3652 1661,-172 1661,-172 1661,-172 1119.6986,-172 1119.6986,-172"/>
<polygon fill="#000000" stroke="#000000" points="1119.6986,-168.5001 1109.6986,-172 1119.6986,-175.5001 1119.6986,-168.5001"/>
</g>
<!-- BookstandService -->
<g id="node6" class="node">
<title>BookstandService</title>
<ellipse fill="#fdb462" stroke="#000000" cx="1502" cy="-104" rx="81.1014" ry="18"/>
<text text-anchor="middle" x="1502" y="-99.8" font-family="Times,serif" font-size="14.00" fill="#000000">BookstandService</text>
</g>
<!-- BookstandService&#45;&gt;AppModule -->
<g id="edge5" class="edge">
<title>BookstandService&#45;&gt;AppModule</title>
<path fill="none" stroke="#000000" d="M1502,-122.2222C1502,-140.8285 1502,-167 1502,-167 1502,-167 1120.0081,-167 1120.0081,-167"/>
<polygon fill="#000000" stroke="#000000" points="1120.0081,-163.5001 1110.0081,-167 1120.0081,-170.5001 1120.0081,-163.5001"/>
</g>
<!-- BrandService -->
<g id="node7" class="node">
<title>BrandService</title>
<ellipse fill="#fdb462" stroke="#000000" cx="1339" cy="-104" rx="63.6813" ry="18"/>
<text text-anchor="middle" x="1339" y="-99.8" font-family="Times,serif" font-size="14.00" fill="#000000">BrandService</text>
</g>
<!-- BrandService&#45;&gt;AppModule -->
<g id="edge6" class="edge">
<title>BrandService&#45;&gt;AppModule</title>
<path fill="none" stroke="#000000" d="M1339,-122.0336C1339,-139.0597 1339,-162 1339,-162 1339,-162 1119.7498,-162 1119.7498,-162"/>
<polygon fill="#000000" stroke="#000000" points="1119.7499,-158.5001 1109.7498,-162 1119.7498,-165.5001 1119.7499,-158.5001"/>
</g>
<!-- CategoryService -->
<g id="node8" class="node">
<title>CategoryService</title>
<ellipse fill="#fdb462" stroke="#000000" cx="1182" cy="-104" rx="75.279" ry="18"/>
<text text-anchor="middle" x="1182" y="-99.8" font-family="Times,serif" font-size="14.00" fill="#000000">CategoryService</text>
</g>
<!-- CategoryService&#45;&gt;AppModule -->
<g id="edge7" class="edge">
<title>CategoryService&#45;&gt;AppModule</title>
<path fill="none" stroke="#000000" d="M1116.1489,-113.2319C1116.1489,-128.4167 1116.1489,-157 1116.1489,-157 1116.1489,-157 1115.5194,-157 1115.5194,-157"/>
<polygon fill="#000000" stroke="#000000" points="1119.8543,-153.5002 1109.8542,-157 1119.8542,-160.5002 1119.8543,-153.5002"/>
</g>
<!-- ItemsNewValueHandlerService -->
<g id="node9" class="node">
<title>ItemsNewValueHandlerService</title>
<ellipse fill="#fdb462" stroke="#000000" cx="955" cy="-104" rx="133.6628" ry="18"/>
<text text-anchor="middle" x="955" y="-99.8" font-family="Times,serif" font-size="14.00" fill="#000000">ItemsNewValueHandlerService</text>
</g>
<!-- ItemsNewValueHandlerService&#45;&gt;AppModule -->
<g id="edge8" class="edge">
<title>ItemsNewValueHandlerService&#45;&gt;AppModule</title>
<path fill="none" stroke="#000000" d="M1057.5016,-115.6207C1057.5016,-115.6207 1057.5016,-140.8534 1057.5016,-140.8534"/>
<polygon fill="#000000" stroke="#000000" points="1054.0017,-140.8533 1057.5016,-150.8534 1061.0017,-140.8534 1054.0017,-140.8533"/>
</g>
<!-- ItemsService -->
<g id="node10" class="node">
<title>ItemsService</title>
<ellipse fill="#fdb462" stroke="#000000" cx="742" cy="-104" rx="61.3896" ry="18"/>
<text text-anchor="middle" x="742" y="-99.8" font-family="Times,serif" font-size="14.00" fill="#000000">ItemsService</text>
</g>
<!-- ItemsService&#45;&gt;AppModule -->
<g id="edge9" class="edge">
<title>ItemsService&#45;&gt;AppModule</title>
<path fill="none" stroke="#000000" d="M742,-122.2396C742,-137.5706 742,-157 742,-157 742,-157 1016.0486,-157 1016.0486,-157"/>
<polygon fill="#000000" stroke="#000000" points="1016.0486,-160.5001 1026.0486,-157 1016.0486,-153.5001 1016.0486,-160.5001"/>
</g>
<!-- LoginService -->
<g id="node11" class="node">
<title>LoginService</title>
<ellipse fill="#fdb462" stroke="#000000" cx="599" cy="-104" rx="63.1209" ry="18"/>
<text text-anchor="middle" x="599" y="-99.8" font-family="Times,serif" font-size="14.00" fill="#000000">LoginService</text>
</g>
<!-- LoginService&#45;&gt;AppModule -->
<g id="edge10" class="edge">
<title>LoginService&#45;&gt;AppModule</title>
<path fill="none" stroke="#000000" d="M599,-122.0225C599,-139.3734 599,-163 599,-163 599,-163 1015.9666,-163 1015.9666,-163"/>
<polygon fill="#000000" stroke="#000000" points="1015.9667,-166.5001 1025.9666,-163 1015.9666,-159.5001 1015.9667,-166.5001"/>
</g>
<!-- SessionService -->
<g id="node12" class="node">
<title>SessionService</title>
<ellipse fill="#fdb462" stroke="#000000" cx="448" cy="-104" rx="69.4974" ry="18"/>
<text text-anchor="middle" x="448" y="-99.8" font-family="Times,serif" font-size="14.00" fill="#000000">SessionService</text>
</g>
<!-- SessionService&#45;&gt;AppModule -->
<g id="edge11" class="edge">
<title>SessionService&#45;&gt;AppModule</title>
<path fill="none" stroke="#000000" d="M448,-122.1061C448,-141.3391 448,-169 448,-169 448,-169 1015.8723,-169 1015.8723,-169"/>
<polygon fill="#000000" stroke="#000000" points="1015.8724,-172.5001 1025.8723,-169 1015.8723,-165.5001 1015.8724,-172.5001"/>
</g>
<!-- StorehousesService -->
<g id="node13" class="node">
<title>StorehousesService</title>
<ellipse fill="#fdb462" stroke="#000000" cx="274" cy="-104" rx="86.8146" ry="18"/>
<text text-anchor="middle" x="274" y="-99.8" font-family="Times,serif" font-size="14.00" fill="#000000">StorehousesService</text>
</g>
<!-- StorehousesService&#45;&gt;AppModule -->
<g id="edge12" class="edge">
<title>StorehousesService&#45;&gt;AppModule</title>
<path fill="none" stroke="#000000" d="M274,-122.2843C274,-143.3211 274,-175 274,-175 274,-175 1016.1508,-175 1016.1508,-175"/>
<polygon fill="#000000" stroke="#000000" points="1016.1508,-178.5001 1026.1508,-175 1016.1507,-171.5001 1016.1508,-178.5001"/>
</g>
<!-- UserApiService -->
<g id="node14" class="node">
<title>UserApiService</title>
<ellipse fill="#fdb462" stroke="#000000" cx="97" cy="-104" rx="72.9082" ry="18"/>
<text text-anchor="middle" x="97" y="-99.8" font-family="Times,serif" font-size="14.00" fill="#000000">UserApiService</text>
</g>
<!-- UserApiService&#45;&gt;AppModule -->
<g id="edge13" class="edge">
<title>UserApiService&#45;&gt;AppModule</title>
<path fill="none" stroke="#000000" d="M97,-122.2479C97,-145.0179 97,-181 97,-181 97,-181 1016.2773,-181 1016.2773,-181"/>
<polygon fill="#000000" stroke="#000000" points="1016.2774,-184.5001 1026.2773,-181 1016.2773,-177.5001 1016.2774,-184.5001"/>
</g>
</g>
</svg>
